Coordinates
version=1
nRows=32
nColumns=38
inDegrees=yes

Units are S.I. units (second, meters, Newtons, ...)
Angles are in degrees.

endheader
time	first_body_tilt	first_body_list	first_body_rotation	first_body_tx	first_body_ty	first_body_tz	hip_flexion_r	hip_adduction_r	hip_rotation_r	knee_angle_r	ankle_angle_r	subtalar_angle_r	mtp_angle_r	hip_flexion_l	hip_adduction_l	hip_rotation_l	knee_angle_l	ankle_angle_l	subtalar_angle_l	mtp_angle_l	lumbar_extension	lumbar_bending	lumbar_rotation	arm_flex_r	arm_add_r	arm_rot_r	elbow_flex_r	pro_sup_r	wrist_flex_r	wrist_dev_r	arm_flex_l	arm_add_l	arm_rot_l	elbow_flex_l	pro_sup_l	wrist_flex_l	wrist_dev_l
0.640000	-3.079467	2.374990	15.106641	0.601929	0.021969	-0.054479	32.038463	-3.325083	-4.597207	-4.365573	4.991738	0.000000	0.000000	-6.310000	3.274358	-7.188474	-6.824548	16.071881	0.000000	0.000000	-2.127381	-3.770415	-0.583162	-13.391635	-8.055818	-11.691315	30.938516	111.311492	0.000000	0.000000	12.654735	-12.409700	-0.511957	46.958446	108.307813	0.000000	0.000000	
0.645000	-3.314778	2.528681	15.129262	0.602217	0.022603	-0.054333	32.075566	-3.260888	-4.475910	-4.353566	5.063791	0.000000	0.000000	-6.408881	3.122332	-7.147292	-7.231689	16.383090	0.000000	0.000000	-2.144201	-3.695628	-0.534198	-13.135462	-8.067490	-11.577515	30.839804	111.364242	0.000000	0.000000	12.469026	-12.367095	-0.529287	46.956156	108.251282	0.000000	0.000000	
0.650000	-3.585795	2.679887	15.142117	0.602540	0.023339	-0.054195	32.115435	-3.196917	-4.305849	-4.494218	5.130690	0.000000	0.000000	-6.519551	2.967657	-7.104638	-7.654692	16.667547	0.000000	0.000000	-2.174409	-3.617463	-0.488905	-12.871767	-8.088577	-11.436356	30.739957	111.427532	0.000000	0.000000	12.270417	-12.318743	-0.568218	46.931492	108.190679	0.000000	0.000000	
0.655000	-3.896510	2.828408	15.143762	0.602895	0.024186	-0.054073	32.162365	-3.131140	-4.104151	-4.788261	5.183722	0.000000	0.000000	-6.642492	2.808996	-7.061852	-8.091589	16.920592	0.000000	0.000000	-2.216263	-3.534717	-0.446198	-12.600971	-8.119031	-11.266205	30.639197	111.502102	0.000000	0.000000	12.057594	-12.263443	-0.632083	46.884691	108.124938	0.000000	0.000000	
0.660000	-4.249502	2.974505	15.133592	0.603276	0.025153	-0.053972	32.219494	-3.061208	-3.891875	-5.230631	5.215419	0.000000	0.000000	-6.777546	2.644380	-7.020271	-8.541285	17.139548	0.000000	0.000000	-2.267709	-3.445868	-0.405008	-12.324012	-8.158301	-11.067151	30.538292	111.587816	0.000000	0.000000	11.829733	-12.200201	-0.723123	46.815542	108.053706	0.000000	0.000000	
0.665000	-4.645920	3.118840	15.111841	0.603681	0.026245	-0.053896	32.288126	-2.984753	-3.691401	-5.809873	5.220688	0.000000	0.000000	-6.924096	2.471523	-6.981122	-9.003453	17.323637	0.000000	0.000000	-2.326612	-3.349344	-0.364371	-12.042294	-8.205368	-10.841161	30.438561	111.683565	0.000000	0.000000	11.586614	-12.128442	-0.842140	46.723245	107.977573	0.000000	0.000000	
0.670000	-5.085690	3.262371	15.079475	0.604110	0.027466	-0.053848	32.367261	-2.899642	-3.523473	-6.508119	5.197332	0.000000	0.000000	-7.081211	2.288120	-6.945447	-9.478368	17.473590	0.000000	0.000000	-2.390958	-3.243767	-0.323480	-11.757533	-8.258813	-10.591987	30.341737	111.787321	0.000000	0.000000	11.328662	-12.048177	-0.988334	46.606374	107.898124	0.000000	0.000000	
0.675000	-5.567909	3.406209	15.037964	0.604563	0.028818	-0.053831	32.453433	-2.804126	-3.404386	-7.301722	5.145849	0.000000	0.000000	-7.247731	2.092106	-6.914095	-9.966688	17.591061	0.000000	0.000000	-2.458977	-3.128139	-0.281688	-11.471530	-8.316932	-10.324816	30.249734	111.896355	0.000000	0.000000	11.056911	-11.960074	-1.159375	46.462926	107.817776	0.000000	0.000000	
0.680000	-6.091327	3.551451	14.989018	0.605043	0.030302	-0.053845	32.540901	-2.696871	-3.343775	-8.162526	5.068562	0.000000	0.000000	-7.422269	1.881828	-6.887757	-10.469249	17.677926	0.000000	0.000000	-2.529175	-3.001924	-0.238469	-11.185940	-8.377877	-10.045712	30.164351	112.007586	0.000000	0.000000	10.772901	-11.865404	-1.351712	46.290457	107.739450	0.000000	0.000000	
0.685000	-6.654835	3.699018	14.934283	0.605553	0.031920	-0.053889	32.622195	-2.576903	-3.343419	-9.059687	4.968296	0.000000	0.000000	-7.603123	1.656138	-6.867028	-10.986912	17.735652	0.000000	0.000000	-2.600265	-2.865050	-0.193333	-10.902055	-8.439818	-9.760933	30.086997	112.117994	0.000000	0.000000	10.478529	-11.765863	-1.561048	46.086295	107.666100	0.000000	0.000000	
0.690000	-7.257855	3.849522	14.875090	0.606098	0.033671	-0.053964	32.688936	-2.443494	-3.397257	-9.961879	4.846988	0.000000	0.000000	-7.788159	1.414395	-6.852474	-11.520491	17.764812	0.000000	0.000000	-2.671037	-2.717811	-0.145731	-10.620656	-8.501110	-9.476210	30.018475	112.225038	0.000000	0.000000	10.175875	-11.663301	-1.782923	45.847806	107.600220	0.000000	0.000000	
0.695000	-7.900566	4.003163	14.812256	0.606685	0.035558	-0.054068	32.732829	-2.296045	-3.492653	-10.839638	4.704601	0.000000	0.000000	-7.974676	1.156411	-6.844663	-12.070782	17.764861	0.000000	0.000000	-2.740211	-2.560735	-0.094982	-10.341958	-8.560436	-9.196118	29.958885	112.326985	0.000000	0.000000	9.867023	-11.559407	-2.013286	45.572689	107.543417	0.000000	0.000000	
0.700000	-8.583954	4.159697	14.745982	0.607318	0.037584	-0.054200	32.746678	-2.134025	-3.612674	-11.667613	4.538700	0.000000	0.000000	-8.159330	0.882362	-6.844152	-12.638676	17.734166	0.000000	0.000000	-2.806323	-2.394442	-0.040241	-10.065627	-8.616904	-8.923621	29.907638	112.423096	0.000000	0.000000	9.553896	-11.455423	-2.248963	45.259283	107.496152	0.000000	0.000000	
0.705000	-9.309689	4.318443	14.675855	0.608004	0.039753	-0.054363	32.725272	-1.956987	-3.738988	-12.426431	4.344823	0.000000	0.000000	-8.338127	0.592706	-6.851399	-13.225335	17.670272	0.000000	0.000000	-2.867684	-2.219542	0.019462	-9.790894	-8.670095	-8.659858	29.863585	112.513622	0.000000	0.000000	9.238126	-11.351946	-2.487950	44.906823	107.457717	0.000000	0.000000	
0.710000	-10.079897	4.478352	14.600939	0.608751	0.042068	-0.054556	32.666024	-1.764694	-3.854868	-13.103999	4.117616	0.000000	0.000000	-8.506519	0.288121	-6.866650	-13.832399	17.570301	0.000000	0.000000	-2.922449	-2.036611	0.085123	-9.516698	-8.720029	-8.404208	29.825222	112.599611	0.000000	0.000000	8.920990	-11.248857	-2.729493	44.515611	107.426462	0.000000	0.000000	
0.715000	-10.896905	4.638100	14.519953	0.609567	0.044536	-0.054782	32.569268	-1.557316	-3.947788	-13.696057	3.852460	0.000000	0.000000	-8.659569	-0.030504	-6.889809	-14.462178	17.431378	0.000000	0.000000	-2.968765	-1.846253	0.157626	-9.241869	-8.767077	-8.154588	29.790933	112.682564	0.000000	0.000000	8.603396	-11.145408	-2.973985	44.087045	107.400259	0.000000	0.000000	
0.720000	-11.763037	4.796212	14.431509	0.610462	0.047164	-0.055044	32.438190	-1.335674	-4.011163	-14.205959	3.547204	0.000000	0.000000	-8.792174	-0.362034	-6.920344	-15.117782	17.250970	0.000000	0.000000	-3.004993	-1.649236	0.237587	-8.965283	-8.811814	-7.907938	29.759222	112.763999	0.000000	0.000000	8.285956	-11.040425	-3.222729	43.623471	107.377102	0.000000	0.000000	
0.725000	-12.680516	4.951175	14.334379	0.611451	0.049957	-0.055345	32.278405	-1.101458	-4.044960	-14.643700	3.203583	0.000000	0.000000	-8.899287	-0.705015	-6.957278	-15.803165	17.027050	0.000000	0.000000	-3.029938	-1.446695	0.325231	-8.685998	-8.854856	-7.660790	29.728911	112.845048	0.000000	0.000000	7.969121	-10.932603	-3.477659	43.127854	107.355716	0.000000	0.000000	
0.730000	-13.651516	5.101542	14.227753	0.612550	0.052922	-0.055688	32.097269	-0.857360	-4.055120	-15.024327	2.827965	0.000000	0.000000	-8.976114	-1.057591	-6.999275	-16.523057	16.758027	0.000000	0.000000	-3.043048	-1.240321	0.420340	-8.403326	-8.896704	-7.409812	29.699269	112.926144	0.000000	0.000000	7.653362	-10.820819	-3.741086	42.603291	107.336031	0.000000	0.000000	
0.735000	-14.678334	5.245995	14.111458	0.613780	0.056066	-0.056074	31.903007	-0.607058	-4.051935	-15.365920	2.431222	0.000000	0.000000	-9.018242	-1.417450	-7.044834	-17.282767	16.442472	0.000000	0.000000	-3.044519	-1.032510	0.522275	-8.116869	-8.937635	-7.152261	29.670074	113.006917	0.000000	0.000000	7.339378	-10.704393	-4.015507	42.052445	107.319366	0.000000	0.000000	
0.740000	-15.763655	5.383385	13.986108	0.615165	0.059398	-0.056503	31.703797	-0.355032	-4.047733	-15.687393	2.027745	0.000000	0.000000	-9.021707	-1.781833	-7.092565	-18.087875	16.078674	0.000000	0.000000	-3.035288	-0.826400	0.630103	-7.826498	-8.977659	-6.886273	29.641614	113.086305	0.000000	0.000000	7.028266	-10.583257	-4.303479	41.477013	107.308233	0.000000	0.000000	
0.745000	-16.910814	5.512719	13.853169	0.616733	0.062925	-0.056973	31.506914	-0.106198	-4.054321	-16.006358	1.633776	0.000000	0.000000	-8.983007	-2.147635	-7.141490	-18.943847	15.664145	0.000000	0.000000	-3.016904	-0.625757	0.742780	-7.532308	-9.016543	-6.610982	29.614635	113.162887	0.000000	0.000000	6.721627	-10.458004	-4.607487	40.877338	107.305746	0.000000	0.000000	
0.750000	-18.123965	5.633124	13.714930	0.618512	0.066655	-0.057480	31.318016	0.134587	-4.080677	-16.337292	1.265380	0.000000	0.000000	-8.899090	-2.511613	-7.191330	-19.855585	15.195215	0.000000	0.000000	-2.991303	-0.434721	0.859382	-7.234558	-9.053903	-6.326512	29.590270	113.235362	0.000000	0.000000	6.421554	-10.329821	-4.929756	40.252298	107.314714	0.000000	0.000000	
0.755000	-19.408066	5.743780	13.574383	0.620534	0.070596	-0.058018	31.140668	0.363076	-4.131291	-16.690189	0.936459	0.000000	0.000000	-8.767367	-2.870687	-7.242673	-20.826995	14.666840	0.000000	0.000000	-2.960537	-0.257407	0.979305	-6.933623	-9.089330	-6.033857	29.569950	113.303061	0.000000	0.000000	6.130479	-10.200350	-5.271928	39.599547	107.336605	0.000000	0.000000	
0.760000	-20.768591	5.843842	13.435008	0.622830	0.074755	-0.058580	30.976100	0.576163	-4.205445	-17.069822	0.657157	0.000000	0.000000	-8.585769	-3.222275	-7.296992	-21.860601	14.072745	0.000000	0.000000	-2.926502	-0.097437	1.102417	-6.629946	-9.122518	-5.734718	29.555328	113.366353	0.000000	0.000000	5.850871	-10.071507	-5.634622	38.916109	107.370664	0.000000	0.000000	
0.765000	-22.210948	5.932363	13.300483	0.625431	0.079137	-0.059159	30.823226	0.772289	-4.297485	-17.475680	0.432936	0.000000	0.000000	-8.352870	-3.564617	-7.356445	-22.957274	13.405972	0.000000	0.000000	-2.890740	0.042526	1.229097	-6.324005	-9.153366	-5.431328	29.548217	113.426819	0.000000	0.000000	5.584830	-9.945328	-6.016960	38.199261	107.413478	0.000000	0.000000	
0.770000	-23.739638	6.008237	13.174325	0.628364	0.083746	-0.059746	30.678892	0.951646	-4.397965	-17.902527	0.264457	0.000000	0.000000	-8.068049	-3.896991	-7.423469	-24.116114	12.659800	0.000000	0.000000	-2.854341	0.161162	1.360158	-6.016287	-9.182025	-5.126259	29.550533	113.487096	0.000000	0.000000	5.333647	-9.823838	-6.416209	37.447543	107.459273	0.000000	0.000000	
0.775000	-25.357246	6.070175	13.059498	0.631652	0.088581	-0.060330	30.538311	1.116145	-4.495391	-18.341500	0.148232	0.000000	0.000000	-7.731661	-4.219782	-7.500202	-25.334518	11.828946	0.000000	0.000000	-2.817977	0.258702	1.496657	-5.707251	-9.208888	-4.822213	29.564252	113.550360	0.000000	0.000000	5.097417	-9.708969	-6.827752	36.661684	107.501085	0.000000	0.000000	
0.780000	-27.063432	6.116728	12.958022	0.635312	0.093638	-0.060904	30.395647	1.269143	-4.578166	-18.781568	0.077903	0.000000	0.000000	-7.345138	-4.534354	-7.587814	-26.608448	10.910844	0.000000	0.000000	-2.782039	0.336927	1.639634	-5.397275	-9.234530	-4.521771	29.591357	113.619511	0.000000	0.000000	4.874815	-9.602489	-7.245548	35.845239	107.532757	0.000000	0.000000	
0.785000	-28.854150	6.146364	12.870638	0.639353	0.098909	-0.061458	30.244667	1.414969	-4.636389	-19.211154	0.045859	0.000000	0.000000	-6.910961	-4.842741	-7.685903	-27.932877	9.906755	0.000000	0.000000	-2.746844	0.398949	1.789809	-5.086596	-9.259611	-4.227093	29.633776	113.696188	0.000000	0.000000	4.663115	-9.505925	-7.663152	35.004724	107.551483	0.000000	0.000000	
0.790000	-30.721276	6.157590	12.796602	0.643780	0.104384	-0.061986	30.079426	1.558336	-4.663179	-19.619683	0.044895	0.000000	0.000000	-6.432458	-5.147216	-7.792058	-29.302358	8.822440	0.000000	0.000000	-2.712838	0.448794	1.947336	-4.775240	-9.284787	-3.939582	29.693311	113.779821	0.000000	0.000000	4.458496	-9.420449	-8.075204	34.149175	107.560372	0.000000	0.000000	
0.795000	-32.652807	6.149101	12.733657	0.648589	0.110046	-0.062482	29.894880	1.703732	-4.655358	-19.998853	0.069604	0.000000	0.000000	-5.913425	-5.449820	-7.901751	-30.711625	7.668187	0.000000	0.000000	-2.680745	0.490886	2.111629	-4.462978	-9.310639	-3.659558	29.771544	113.866967	0.000000	0.000000	4.256604	-9.346730	-8.479113	33.289146	107.570361	0.000000	0.000000	
